HIERARCHY
ROOT root
{
	OFFSET 0.000000 0.000000 0.000000
	CHANNELS 6 Xposition Yposition Zposition Zrotation Yrotation Xrotation
	JOINT lhip
	{
		OFFSET 0.058581 -0.082280 -0.017664
		CHANNELS 3 Zrotation Yrotation Xrotation
		JOINT lknee
		{
			OFFSET 0.043451 -0.386469 0.008037
			CHANNELS 3 Zrotation Yrotation Xrotation
			JOINT lankle
			{
				OFFSET -0.014790 -0.426874 -0.037428
				CHANNELS 3 Zrotation Yrotation Xrotation
				JOINT ltoe
				{
					OFFSET 0.041054 -0.060286 0.122042
					CHANNELS 3 Zrotation Yrotation Xrotation
					End Site
					{
						OFFSET 0.000000 0.000000 0.000000
					}
				}
			}
		}
	}
	JOINT rhip
	{
		OFFSET -0.060310 -0.090513 -0.013543
		CHANNELS 3 Zrotation Yrotation Xrotation
		JOINT rknee
		{
			OFFSET -0.043257 -0.383688 -0.004843
			CHANNELS 3 Zrotation Yrotation Xrotation
			JOINT rankle
			{
				OFFSET 0.019056 -0.420046 -0.034562
				CHANNELS 3 Zrotation Yrotation Xrotation
				JOINT rtoe
				{
					OFFSET -0.034840 -0.062106 0.130323
					CHANNELS 3 Zrotation Yrotation Xrotation
					End Site
					{
						OFFSET 0.000000 0.000000 0.000000
					}
				}
			}
		}
	}
	JOINT lowerback
	{
		OFFSET 0.004439 0.124404 -0.038385
		CHANNELS 3 Zrotation Yrotation Xrotation
		JOINT upperback
		{
			OFFSET 0.004488 0.137956 0.026820
			CHANNELS 3 Zrotation Yrotation Xrotation
			JOINT chest
			{
				OFFSET -0.002265 0.056032 0.002855
				CHANNELS 3 Zrotation Yrotation Xrotation
				JOINT lowerneck
				{
					OFFSET -0.013390 0.211636 -0.033468
					CHANNELS 3 Zrotation Yrotation Xrotation
					JOINT upperneck
					{
						OFFSET 0.010113 0.088937 0.050410
						CHANNELS 3 Zrotation Yrotation Xrotation
						End Site
						{
							OFFSET 0.000000 0.000000 0.000000
						}
					}
				}
				JOINT lclavicle
				{
					OFFSET 0.071702 0.114000 -0.018898
					CHANNELS 3 Zrotation Yrotation Xrotation
					JOINT lshoulder
					{
						OFFSET 0.122921 0.045205 -0.019046
						CHANNELS 3 Zrotation Yrotation Xrotation
						JOINT lelbow
						{
							OFFSET 0.255332 -0.015649 -0.022946
							CHANNELS 3 Zrotation Yrotation Xrotation
							JOINT lwrist
							{
								OFFSET 0.265709 0.012698 -0.007375
								CHANNELS 3 Zrotation Yrotation Xrotation
								End Site
								{
									OFFSET 0.000000 0.000000 0.000000
								}
							}
						}
					}
				}
				JOINT rclavicle
				{
					OFFSET -0.082954 0.112472 -0.023707
					CHANNELS 3 Zrotation Yrotation Xrotation
					JOINT rshoulder
					{
						OFFSET -0.113228 0.046853 -0.008472
						CHANNELS 3 Zrotation Yrotation Xrotation
						JOINT relbow
						{
							OFFSET -0.260127 -0.014369 -0.031269
							CHANNELS 3 Zrotation Yrotation Xrotation
							JOINT rwrist
							{
								OFFSET -0.269108 0.006794 -0.006027
								CHANNELS 3 Zrotation Yrotation Xrotation
								End Site
								{
									OFFSET 0.000000 0.000000 0.000000
								}
							}
						}
					}
				}
			}
		}
	}
}
MOTION
Frames: 17
Frame Time: 0.033333
-0.285047 0.498721 0.994036 -5.434617 2.868899 85.349946 6.536261 8.809253 11.704074 -4.413052 6.829167 -5.247583 2.251582 16.721179 -13.798369 0.000000 -0.000000 0.000000 -0.384184 -2.084769 1.125281 3.044378 -2.718980 11.634184 1.852056 -7.523166 -12.451179 0.000000 -0.000000 0.000000 1.993586 -2.343284 0.907864 2.052584 -3.598307 6.001006 -1.649136 -3.433388 2.424710 7.325859 -12.735552 -8.829018 1.888918 -20.413428 14.008970 -28.922388 -1.460076 4.330799 -58.321299 -9.163517 11.631628 4.721752 -21.741390 9.308612 -2.546564 -7.027380 -1.009464 26.809958 3.499213 -0.563284 56.783767 4.298345 14.262292 -7.994564 22.571223 0.057492 4.656694 4.012315 -6.515103 
-0.284899 0.498425 0.993920 -5.448495 2.863416 85.375991 6.508696 8.742649 11.688012 -4.418571 6.844864 -5.266801 2.168059 16.776871 -13.808794 0.000000 -0.000000 0.000000 -0.391131 -1.933756 1.156136 3.135500 -2.493925 11.533809 2.239667 -7.909173 -12.508511 0.000000 -0.000000 0.000000 2.017839 -2.439340 0.777273 1.918687 -3.513419 5.941265 -1.609733 -3.442358 2.666400 7.384891 -12.674707 -9.157015 1.707086 -20.413134 14.442751 -28.726625 -1.484752 4.317860 -58.567443 -9.331281 11.605146 4.839683 -21.583613 9.111088 -2.627280 -7.069603 -0.780727 26.719588 3.568298 -0.442851 56.918154 4.512063 14.275419 -8.079160 22.507052 -0.290619 4.752275 3.986723 -6.318674 
-0.284802 0.498276 0.993884 -5.451605 2.868122 85.376766 6.499678 8.707688 11.695133 -4.418040 6.871059 -5.270852 2.180472 16.781323 -13.818797 0.000000 -0.000000 0.000000 -0.380586 -1.907332 1.175044 3.140939 -2.467557 11.508139 2.227852 -7.960859 -12.500119 0.000000 -0.000000 0.000000 2.027639 -2.450562 0.696740 1.895591 -3.517830 5.972088 -1.637807 -3.513768 2.712944 7.370737 -12.615235 -9.117961 1.675282 -20.384274 14.491474 -28.716375 -1.482043 4.334353 -58.577432 -9.387362 11.620152 4.897115 -21.569146 9.072543 -2.667113 -7.076681 -0.780214 26.750641 3.692379 -0.351863 56.933158 4.617351 14.328361 -8.150043 22.400931 -0.401275 4.777730 3.980378 -6.342742 
-0.284709 0.498170 0.993766 -5.468202 2.865592 85.364133 6.487256 8.671743 11.742121 -4.422077 6.890871 -5.299083 2.193002 16.793613 -13.824797 0.000000 -0.000000 0.000000 -0.370999 -1.893344 1.210877 3.137612 -2.416251 11.492366 2.197246 -8.012773 -12.505922 0.000000 -0.000000 0.000000 2.040814 -2.460530 0.623633 1.858005 -3.523177 6.006581 -1.687670 -3.625844 2.773138 7.350529 -12.532125 -9.040807 1.644742 -20.363915 14.526821 -28.717188 -1.489494 4.369047 -58.561035 -9.454694 11.641613 4.990485 -21.550746 8.989975 -2.712540 -7.102603 -0.785559 26.818336 3.916338 -0.207466 56.958968 4.779153 14.408404 -8.245053 22.197982 -0.582439 4.811252 3.950757 -6.381799 
-0.284673 0.498130 0.993683 -5.481409 2.872284 85.360543 6.496968 8.673416 11.764679 -4.429321 6.890027 -5.308963 2.198437 16.791742 -13.836845 0.000000 -0.000000 0.000000 -0.361005 -1.903800 1.209517 3.130501 -2.409494 11.518989 2.196109 -7.995754 -12.527880 0.000000 -0.000000 0.000000 2.031668 -2.457754 0.642818 1.852916 -3.526299 6.013321 -1.688821 -3.624543 2.762943 7.348739 -12.511374 -9.060529 1.641977 -20.364978 14.550813 -28.717007 -1.527122 4.384596 -58.570928 -9.465071 11.639630 5.025582 -21.537697 8.938973 -2.709832 -7.114652 -0.761620 26.838466 3.961297 -0.177768 56.970832 4.810487 14.389817 -8.271366 22.161125 -0.637968 4.828455 3.951865 -6.390487 
-0.284624 0.498077 0.993586 -5.491541 2.879504 85.355669 6.503617 8.675375 11.791264 -4.432576 6.889960 -5.320586 2.205723 16.790109 -13.854321 0.000000 -0.000000 0.000000 -0.356595 -1.912565 1.216188 3.128404 -2.409385 11.539063 2.192385 -7.978510 -12.543842 0.000000 -0.000000 0.000000 2.019149 -2.456408 0.666639 1.846831 -3.531070 6.021951 -1.687795 -3.619045 2.757881 7.338506 -12.488332 -9.076883 1.638379 -20.349075 14.567322 -28.713351 -1.562995 4.400246 -58.588220 -9.476267 11.627571 5.056942 -21.517717 8.897970 -2.698176 -7.125590 -0.754950 26.858532 3.998112 -0.152428 56.991552 4.836373 14.376473 -8.305547 22.158791 -0.659596 4.829546 3.935878 -6.379790 
-0.284606 0.498050 0.993497 -5.498841 2.886854 85.357534 6.510603 8.675643 11.806392 -4.433694 6.891907 -5.331465 2.214610 16.787251 -13.862347 0.000000 -0.000000 0.000000 -0.351792 -1.915611 1.222648 3.128997 -2.413354 11.540170 2.187707 -7.961821 -12.549361 0.000000 -0.000000 0.000000 2.003976 -2.453045 0.690868 1.842479 -3.532474 6.019640 -1.683545 -3.613016 2.753698 7.320706 -12.469261 -9.063786 1.637789 -20.331318 14.564542 -28.703432 -1.585106 4.409171 -58.603917 -9.476194 11.620233 5.068476 -21.507372 8.876144 -2.687790 -7.132665 -0.758853 26.859517 4.018720 -0.131327 57.019313 4.848774 14.380127 -8.317258 22.184027 -0.636850 4.822287 3.929426 -6.376866 
-0.284604 0.498016 0.993456 -5.507736 2.893672 85.360802 6.519150 8.681407 11.820170 -4.435870 6.888051 -5.346037 2.218441 16.784528 -13.864781 0.000000 -0.000000 0.000000 -0.343743 -1.918913 1.226790 3.127894 -2.410709 11.539346 2.190257 -7.950482 -12.547699 0.000000 -0.000000 0.000000 1.992736 -2.446262 0.699587 1.835487 -3.530664 6.028565 -1.685132 -3.605643 2.753529 7.300321 -12.453610 -9.044055 1.639304 -20.317842 14.565412 -28.696357 -1.600454 4.417019 -58.607615 -9.478459 11.618731 5.077612 -21.516522 8.861681 -2.670943 -7.135173 -0.766087 26.862487 4.033170 -0.112566 57.047748 4.855510 14.378491 -8.327160 22.207269 -0.636766 4.800934 3.925792 -6.390043 
-0.284617 0.497972 0.993439 -5.518525 2.898834 85.362493 6.523420 8.677444 11.827573 -4.434602 6.892877 -5.348114 2.217128 16.790225 -13.870403 0.000000 -0.000000 0.000000 -0.336534 -1.917261 1.235307 3.127484 -2.409984 11.531105 2.191543 -7.942693 -12.543327 0.000000 -0.000000 0.000000 1.981819 -2.440933 0.694639 1.826763 -3.527514 6.046952 -1.690213 -3.599060 2.754928 7.284873 -12.439466 -9.015837 1.631165 -20.300626 14.583916 -28.685089 -1.612602 4.423045 -58.616692 -9.485142 11.622061 5.098097 -21.525399 8.837343 -2.659231 -7.140670 -0.771010 26.865324 4.046286 -0.097410 57.073579 4.868521 14.377536 -8.339605 22.201528 -0.651926 4.795797 3.925243 -6.410025 
-0.284619 0.497890 0.993422 -5.524980 2.903007 85.370120 6.524582 8.674462 11.829752 -4.433498 6.894876 -5.352247 2.220408 16.793778 -13.873869 0.000000 -0.000000 0.000000 -0.335276 -1.920015 1.235448 3.130625 -2.407789 11.528052 2.191304 -7.932675 -12.545128 0.000000 -0.000000 0.000000 1.972944 -2.434147 0.691771 1.820169 -3.520729 6.045130 -1.695868 -3.594444 2.756551 7.269588 -12.430467 -8.982164 1.619338 -20.288903 14.601041 -28.675607 -1.605832 4.422320 -58.625439 -9.486102 11.625821 5.103725 -21.538795 8.838581 -2.658427 -7.139133 -0.763757 26.865127 4.039841 -0.091198 57.084729 4.866309 14.379764 -8.344770 22.200297 -0.648696 4.793511 3.924283 -6.414988 
-0.284640 0.497809 0.993387 -5.533277 2.905768 85.374199 6.533526 8.678551 11.835136 -4.438385 6.896736 -5.354886 2.219208 16.786472 -13.882752 0.000000 -0.000000 0.000000 -0.335429 -1.925696 1.239990 3.136898 -2.407067 11.521167 2.193125 -7.917929 -12.542610 0.000000 -0.000000 0.000000 1.970808 -2.429734 0.685946 1.813318 -3.506588 6.043638 -1.702016 -3.590512 2.752584 7.232552 -12.416397 -8.934986 1.597438 -20.274075 14.632522 -28.674772 -1.597820 4.424086 -58.621296 -9.490213 11.627547 5.103153 -21.552273 8.845248 -2.661736 -7.141259 -0.754536 26.869204 4.038090 -0.081979 57.075950 4.869890 14.379972 -8.336467 22.184037 -0.653633 4.799215 3.936766 -6.432426 
-0.284654 0.497745 0.993369 -5.539646 2.907825 85.375335 6.537669 8.683596 11.841776 -4.441109 6.896529 -5.357734 2.221887 16.788883 -13.884334 0.000000 -0.000000 0.000000 -0.333529 -1.934369 1.243190 3.136482 -2.400909 11.519832 2.192805 -7.910503 -12.545932 0.000000 -0.000000 0.000000 1.972082 -2.425327 0.687653 1.808393 -3.503359 6.043753 -1.705768 -3.591527 2.752251 7.209354 -12.404530 -8.916569 1.584579 -20.258107 14.643114 -28.675712 -1.602677 4.426524 -58.615399 -9.488453 11.626681 5.102357 -21.556708 8.846066 -2.664546 -7.144559 -0.749439 26.867956 4.041474 -0.075304 57.075538 4.870216 14.376453 -8.341873 22.179267 -0.655603 4.805409 3.937065 -6.434309 
-0.284678 0.497649 0.993349 -5.546518 2.906880 85.374988 6.539277 8.694599 11.857582 -4.440889 6.894223 -5.371500 2.227893 16.787045 -13.887377 0.000000 -0.000000 0.000000 -0.330938 -1.947556 1.238543 3.130410 -2.388866 11.540389 2.195745 -7.899380 -12.556763 0.000000 -0.000000 0.000000 1.974721 -2.417655 0.679145 1.803353 -3.503441 6.043969 -1.708185 -3.603305 2.762119 7.179941 -12.372975 -8.886120 1.565999 -20.209183 14.632013 -28.669502 -1.606553 4.420733 -58.615777 -9.479671 11.629402 5.100172 -21.548225 8.846659 -2.649681 -7.152295 -0.754204 26.853101 4.038880 -0.090424 57.076398 4.878827 14.374034 -8.329790 22.161009 -0.668921 4.800768 3.942108 -6.464259 
-0.284697 0.497604 0.993360 -5.548821 2.907993 85.376876 6.541366 8.698076 11.856178 -4.440774 6.895020 -5.367189 2.229536 16.783230 -13.893382 0.000000 -0.000000 0.000000 -0.325595 -1.962371 1.226021 3.123098 -2.378272 11.560819 2.200548 -7.891635 -12.564903 0.000000 -0.000000 0.000000 1.970707 -2.414616 0.673421 1.805799 -3.508696 6.050716 -1.704611 -3.605558 2.767606 7.175286 -12.360716 -8.887736 1.564075 -20.192778 14.623398 -28.670626 -1.606186 4.411892 -58.620120 -9.483995 11.625016 5.098346 -21.537145 8.850628 -2.649667 -7.150909 -0.747940 26.853107 4.033452 -0.096472 57.071934 4.884618 14.368312 -8.335727 22.169372 -0.678568 4.800771 3.943767 -6.464639 
-0.284716 0.497559 0.993396 -5.549228 2.907200 85.378286 6.541437 8.697929 11.855594 -4.440670 6.895313 -5.366522 2.229564 16.783226 -13.893033 0.000000 -0.000000 0.000000 -0.324755 -1.962907 1.224551 3.122889 -2.377777 11.562095 2.200753 -7.891489 -12.564687 0.000000 -0.000000 0.000000 1.970429 -2.414777 0.673370 1.805628 -3.509175 6.049557 -1.704645 -3.606430 2.767101 7.175196 -12.360033 -8.887064 1.564019 -20.191903 14.623736 -28.668877 -1.605716 4.411962 -58.619773 -9.483754 11.624977 5.098300 -21.537621 8.851371 -2.649748 -7.150690 -0.748254 26.851274 4.032143 -0.096934 57.070864 4.884349 14.368044 -8.336693 22.170115 -0.678820 4.800758 3.944027 -6.465179 
-0.284736 0.497519 0.993416 -5.550823 2.905706 85.382641 6.540605 8.697642 11.854723 -4.440203 6.896580 -5.366163 2.229404 16.783436 -13.890690 0.000000 -0.000000 0.000000 -0.323108 -1.964348 1.220686 3.121798 -2.375905 11.565848 2.200997 -7.891155 -12.563722 0.000000 -0.000000 0.000000 1.970694 -2.414440 0.668933 1.806146 -3.509840 6.043321 -1.703741 -3.608478 2.763199 7.174319 -12.358562 -8.883064 1.563371 -20.189381 14.626098 -28.662351 -1.604669 4.413514 -58.618810 -9.482203 11.625726 5.096973 -21.539154 8.855489 -2.650838 -7.150444 -0.750015 26.846269 4.028773 -0.096317 57.070311 4.883026 14.367321 -8.338362 22.169701 -0.679492 4.801215 3.944948 -6.469113 
-0.284791 0.497334 0.993387 -5.568716 2.903037 85.418849 6.528269 8.696102 11.846455 -4.434115 6.903884 -5.396977 2.229283 16.793992 -13.868376 0.000000 -0.000000 0.000000 -0.320950 -1.987288 1.185429 3.115890 -2.337851 11.578879 2.196686 -7.883983 -12.561870 0.000000 -0.000000 0.000000 1.984654 -2.393110 0.601965 1.803298 -3.508480 6.020399 -1.708019 -3.620803 2.734348 7.140354 -12.361735 -8.790166 1.551031 -20.159759 14.643758 -28.624371 -1.608010 4.464516 -58.633793 -9.447196 11.638862 5.062035 -21.537990 8.907842 -2.680384 -7.139405 -0.788299 26.815293 4.014422 -0.061487 57.100478 4.866089 14.353312 -8.346578 22.149944 -0.686830 4.821452 3.944689 -6.530753 
